<svg width="1024" height="1024" viewBox="0 0 1024 1024" fill="none" xmlns="http://www.w3.org/2000/svg">
  <rect x="112" y="112" width="800" height="800" rx="188" fill="#F8FAFC"/>
  <path d="M700.5 318.5C652.8 267.7 585 236 509.7 236C363.7 236 245.4 354.3 245.4 500.3C245.4 646.3 363.7 764.6 509.7 764.6C655.7 764.6 774 646.3 774 500.3C774 458.3 764.2 418.6 746.8 383.3" stroke="#667085" stroke-width="44" stroke-linecap="round"/>
  <circle cx="733" cy="350" r="54" fill="#667085"/>
  <path d="M512 366C534.5 442.3 581.7 489.5 658 512C581.7 534.5 534.5 581.7 512 658C489.5 581.7 442.3 534.5 366 512C442.3 489.5 489.5 442.3 512 366Z" fill="#667085"/>
</svg>
