<svg width="1024" height="1024" viewBox="0 0 1024 1024" fill="none" xmlns="http://www.w3.org/2000/svg">
  <defs>
    <radialGradient id="bg" cx="0" cy="0" r="1" gradientUnits="userSpaceOnUse" gradientTransform="translate(320 218) rotate(50) scale(895)">
      <stop stop-color="#293050"/>
      <stop offset="0.55" stop-color="#111827"/>
      <stop offset="1" stop-color="#070B14"/>
    </radialGradient>
    <linearGradient id="ring" x1="250" y1="192" x2="775" y2="833" gradientUnits="userSpaceOnUse">
      <stop stop-color="#AFC3FF"/>
      <stop offset="0.45" stop-color="#6675FF"/>
      <stop offset="1" stop-color="#6D4DFF"/>
    </linearGradient>
    <radialGradient id="spark" cx="0" cy="0" r="1" gradientUnits="userSpaceOnUse" gradientTransform="translate(504 515) rotate(90) scale(174)">
      <stop stop-color="#F3F6FF"/>
      <stop offset="0.42" stop-color="#AFC0FF"/>
      <stop offset="1" stop-color="#6675FF"/>
    </radialGradient>
    <filter id="shadow" x="-64" y="-64" width="1152" height="1152" filterUnits="userSpaceOnUse" color-interpolation-filters="sRGB">
      <feDropShadow dx="0" dy="18" stdDeviation="30" flood-color="#000000" flood-opacity="0.34"/>
      <feDropShadow dx="0" dy="0" stdDeviation="24" flood-color="#6474FF" flood-opacity="0.18"/>
    </filter>
    <filter id="glow" x="74" y="48" width="896" height="922" filterUnits="userSpaceOnUse" color-interpolation-filters="sRGB">
      <feGaussianBlur stdDeviation="12" result="blur"/>
      <feMerge><feMergeNode in="blur"/><feMergeNode in="SourceGraphic"/></feMerge>
    </filter>
  </defs>
  <rect width="1024" height="1024" rx="228" fill="url(#bg)" filter="url(#shadow)"/>
  <rect x="4" y="4" width="1016" height="1016" rx="224" stroke="white" stroke-opacity="0.08" stroke-width="8"/>
  <g filter="url(#glow)" transform="translate(512 512) scale(1.28) translate(-512 -512)">
    <path d="M700.5 318.5C652.8 267.7 585 236 509.7 236C363.7 236 245.4 354.3 245.4 500.3C245.4 646.3 363.7 764.6 509.7 764.6C655.7 764.6 774 646.3 774 500.3C774 458.3 764.2 418.6 746.8 383.3" stroke="url(#ring)" stroke-width="44" stroke-linecap="round"/>
    <circle cx="733" cy="350" r="54" fill="url(#ring)"/>
    <path d="M512 366C534.5 442.3 581.7 489.5 658 512C581.7 534.5 534.5 581.7 512 658C489.5 581.7 442.3 534.5 366 512C442.3 489.5 489.5 442.3 512 366Z" fill="url(#spark)"/>
  </g>
</svg>
